P3 50 50 255 
0 0 182 12 0 0 4 0 0 0 0 188 0 0 48 240 0 0 0 0 78 0 0 76 20 0 0 0 0 202 30 0 0 246 0 0 170 0 0 0 0 2 0 0 230 50 0 0 0 0 226 60 0 0 56 0 0 0 0 196 0 0 66 78 0 0 0 0 58 0 0 62 0 0 160 138 0 0 0 0 2 76 0 0 0 0 16 0 0 134 160 0 0 252 0 0 0 0 22 228 0 0 0 0 128 0 0 4 114 0 0 36 0 0 248 0 0 206 0 0 0 0 182 0 0 58 166 0 0 0 0 234 0 0 252 0 0 172 176 0 0 80 0 0 192 0 0 0 0 98 
104 0 0 0 0 124 96 0 0 0 0 140 0 0 114 10 0 0 118 0 0 0 0 228 0 0 154 0 0 72 178 0 0 90 0 0 206 0 0 184 0 0 0 0 150 0 0 72 134 0 0 166 0 0 0 0 212 30 0 0 0 0 182 0 0 138 64 0 0 30 0 0 252 0 0 62 0 0 164 0 0 0 0 200 236 0 0 106 0 0 0 0 30 172 0 0 0 0 178 0 0 86 228 0 0 226 0 0 0 0 202 146 0 0 114 0 0 172 0 0 0 0 36 98 0 0 174 0 0 0 0 116 86 0 0 244 0 0 38 0 0 0 0 96 0 0 88 70 0 0 
0 0 4 0 0 154 72 0 0 0 0 28 0 0 62 0 0 194 84 0 0 30 0 0 0 0 236 20 0 0 0 0 90 112 0 0 218 0 0 0 0 20 0 0 116 192 0 0 0 0 108 0 0 68 244 0 0 0 0 90 108 0 0 200 0 0 0 0 88 196 0 0 0 0 230 0 0 226 24 0 0 0 0 178 130 0 0 160 0 0 60 0 0 0 0 162 0 0 140 98 0 0 0 0 20 222 0 0 140 0 0 116 0 0 166 0 0 0 0 62 110 0 0 94 0 0 0 0 226 0 0 2 0 0 164 30 0 0 22 0 0 190 0 0 0 0 14 124 0 0 
8 0 0 0 0 100 0 0 32 0 0 204 178 0 0 218 0 0 0 0 244 0 0 152 0 0 36 254 0 0 0 0 202 90 0 0 0 0 162 0 0 244 0 0 68 110 0 0 0 0 114 16 0 0 98 0 0 106 0 0 214 0 0 0 0 248 18 0 0 40 0 0 36 0 0 86 0 0 80 0 0 120 0 0 226 0 0 32 0 0 0 0 12 0 0 184 0 0 136 0 0 38 0 0 36 0 0 50 0 0 90 0 0 232 0 0 148 140 0 0 182 0 0 0 0 52 34 0 0 74 0 0 240 0 0 0 0 144 76 0 0 0 0 128 36 0 0 0 0 188 
0 0 142 0 0 124 4 0 0 250 0 0 236 0 0 80 0 0 0 0 188 118 0 0 0 0 10 0 0 134 168 0 0 62 0 0 0 0 70 20 0 0 44 0 0 0 0 116 132 0 0 0 0 224 0 0 70 0 0 236 0 0 80 62 0 0 0 0 214 152 0 0 154 0 0 182 0 0 0 0 22 18 0 0 0 0 154 48 0 0 0 0 160 0 0 134 0 0 86 190 0 0 0 0 198 0 0 250 0 0 170 208 0 0 0 0 140 0 0 130 0 0 150 0 0 230 220 0 0 208 0 0 0 0 50 0 0 148 96 0 0 0 0 158 14 0 0 0 0 22 
0 0 84 0 0 2 90 0 0 24 0 0 0 0 106 180 0 0 0 0 180 130 0 0 94 0 0 0 0 56 0 0 246 100 0 0 0 0 42 134 0 0 0 0 100 0 0 60 0 0 112 208 0 0 0 0 60 0 0 202 244 0 0 0 0 122 82 0 0 0 0 132 236 0 0 0 0 190 0 0 178 0 0 86 0 0 40 174 0 0 0 0 150 0 0 144 12 0 0 248 0 0 66 0 0 46 0 0 182 0 0 110 0 0 130 0 0 36 0 0 0 0 224 88 0 0 172 0 0 26 0 0 174 0 0 118 0 0 0 0 184 56 0 0 0 0 208 108 0 0 
0 0 250 0 0 124 96 0 0 0 0 8 118 0 0 0 0 238 0 0 232 0 0 58 226 0 0 216 0 0 0 0 160 0 0 64 0 0 120 0 0 106 0 0 90 166 0 0 14 0 0 138 0 0 50 0 0 0 0 174 34 0 0 0 0 104 192 0 0 6 0 0 0 0 236 248 0 0 0 0 46 0 0 114 238 0 0 0 0 240 172 0 0 0 0 14 88 0 0 0 0 62 0 0 26 0 0 244 210 0 0 0 0 220 238 0 0 0 0 6 0 0 52 216 0 0 0 0 166 0 0 228 0 0 104 144 0 0 0 0 182 240 0 0 0 0 8 170 0 0 
0 0 176 0 0 216 220 0 0 0 0 214 146 0 0 200 0 0 192 0 0 56 0 0 0 0 94 88 0 0 0 0 122 106 0 0 0 0 232 0 0 210 0 0 28 0 0 2 124 0 0 222 0 0 220 0 0 0 0 30 0 0 150 0 0 66 0 0 200 0 0 18 0 0 206 88 0 0 0 0 90 0 0 202 198 0 0 102 0 0 0 0 4 0 0 44 0 0 60 50 0 0 84 0 0 0 0 198 0 0 252 224 0 0 74 0 0 0 0 240 0 0 74 22 0 0 0 0 182 200 0 0 190 0 0 136 0 0 0 0 156 116 0 0 0 0 222 220 0 0 
0 0 176 0 0 188 136 0 0 0 0 186 88 0 0 4 0 0 44 0 0 0 0 32 216 0 0 144 0 0 108 0 0 0 0 228 104 0 0 0 0 134 134 0 0 0 0 238 2 0 0 0 0 236 0 0 170 0 0 50 0 0 44 0 0 94 98 0 0 222 0 0 0 0 152 86 0 0 68 0 0 42 0 0 0 0 98 166 0 0 34 0 0 0 0 124 0 0 228 118 0 0 178 0 0 214 0 0 22 0 0 94 0 0 0 0 152 114 0 0 0 0 90 0 0 38 0 0 240 0 0 144 138 0 0 162 0 0 150 0 0 0 0 208 218 0 0 200 0 0 
0 0 130 98 0 0 0 0 110 56 0 0 0 0 58 218 0 0 250 0 0 120 0 0 144 0 0 72 0 0 0 0 82 124 0 0 236 0 0 102 0 0 52 0 0 0 0 252 0 0 124 182 0 0 14 0 0 0 0 182 94 0 0 244 0 0 0 0 58 148 0 0 142 0 0 208 0 0 32 0 0 0 0 202 100 0 0 0 0 168 34 0 0 0 0 82 0 0 218 170 0 0 102 0 0 0 0 240 0 0 46 208 0 0 40 0 0 0 0 242 0 0 184 4 0 0 246 0 0 96 0 0 0 0 134 46 0 0 0 0 64 22 0 0 20 0 0 138 0 0 
220 0 0 0 0 212 0 0 192 90 0 0 4 0 0 0 0 36 0 0 194 0 0 192 134 0 0 24 0 0 164 0 0 66 0 0 68 0 0 66 0 0 84 0 0 16 0 0 246 0 0 220 0 0 0 0 252 0 0 44 46 0 0 0 0 46 0 0 126 172 0 0 0 0 164 0 0 206 0 0 12 238 0 0 142 0 0 0 0 100 0 0 158 56 0 0 0 0 44 0 0 222 0 0 30 124 0 0 0 0 16 210 0 0 0 0 138 26 0 0 0 0 218 0 0 38 0 0 42 0 0 88 0 0 18 144 0 0 8 0 0 112 0 0 178 0 0 0 0 190 
180 0 0 0 0 46 0 0 228 0 0 132 0 0 40 76 0 0 0 0 36 0 0 194 152 0 0 236 0 0 0 0 120 0 0 126 0 0 112 234 0 0 0 0 22 166 0 0 0 0 44 0 0 50 0 0 104 0 0 28 76 0 0 244 0 0 0 0 238 0 0 128 0 0 200 0 0 152 92 0 0 58 0 0 0 0 24 0 0 152 16 0 0 20 0 0 126 0 0 42 0 0 0 0 248 0 0 198 110 0 0 126 0 0 0 0 192 0 0 206 0 0 112 0 0 200 0 0 208 136 0 0 0 0 128 0 0 108 42 0 0 0 0 98 0 0 22 198 0 0 
104 0 0 142 0 0 96 0 0 0 0 138 0 0 22 0 0 28 126 0 0 0 0 222 0 0 18 170 0 0 0 0 42 0 0 182 2 0 0 0 0 188 46 0 0 192 0 0 0 0 138 0 0 116 0 0 118 70 0 0 0 0 102 52 0 0 228 0 0 170 0 0 32 0 0 0 0 20 0 0 166 0 0 214 0 0 130 108 0 0 80 0 0 106 0 0 0 0 232 0 0 142 0 0 154 0 0 2 212 0 0 0 0 38 0 0 144 0 0 138 120 0 0 232 0 0 0 0 204 0 0 58 210 0 0 158 0 0 0 0 104 124 0 0 182 0 0 0 0 44 
0 0 174 68 0 0 0 0 94 0 0 138 108 0 0 0 0 170 74 0 0 0 0 98 0 0 244 134 0 0 0 0 150 0 0 190 66 0 0 0 0 70 0 0 16 0 0 120 172 0 0 224 0 0 0 0 98 112 0 0 0 0 222 38 0 0 0 0 168 6 0 0 0 0 152 0 0 12 76 0 0 240 0 0 206 0 0 0 0 158 54 0 0 0 0 162 0 0 132 8 0 0 230 0 0 0 0 134 104 0 0 0 0 58 200 0 0 60 0 0 136 0 0 82 0 0 202 0 0 0 0 222 98 0 0 186 0 0 70 0 0 0 0 12 0 0 130 128 0 0 
76 0 0 0 0 66 0 0 28 6 0 0 0 0 140 162 0 0 120 0 0 222 0 0 0 0 152 176 0 0 0 0 60 0 0 244 58 0 0 70 0 0 62 0 0 0 0 14 0 0 36 142 0 0 0 0 212 192 0 0 0 0 246 0 0 242 236 0 0 76 0 0 0 0 184 0 0 26 136 0 0 108 0 0 242 0 0 0 0 30 194 0 0 0 0 36 0 0 220 78 0 0 0 0 208 0 0 174 0 0 222 0 0 188 116 0 0 186 0 0 0 0 198 0 0 80 0 0 202 0 0 186 0 0 90 208 0 0 0 0 252 0 0 122 76 0 0 216 0 0 
0 0 26 0 0 240 124 0 0 0 0 34 46 0 0 68 0 0 142 0 0 124 0 0 132 0 0 96 0 0 0 0 204 0 0 110 246 0 0 0 0 2 216 0 0 232 0 0 0 0 186 40 0 0 0 0 82 26 0 0 0 0 118 232 0 0 254 0 0 0 0 208 40 0 0 0 0 144 0 0 194 96 0 0 148 0 0 0 0 234 228 0 0 0 0 32 210 0 0 0 0 26 0 0 228 0 0 176 0 0 112 0 0 190 188 0 0 0 0 86 0 0 50 206 0 0 110 0 0 60 0 0 146 0 0 78 0 0 0 0 164 156 0 0 0 0 146 0 0 194 
0 0 248 0 0 244 166 0 0 216 0 0 0 0 18 78 0 0 0 0 222 244 0 0 0 0 180 122 0 0 0 0 136 0 0 144 0 0 10 0 0 118 0 0 12 202 0 0 196 0 0 14 0 0 68 0 0 0 0 8 48 0 0 0 0 198 130 0 0 234 0 0 0 0 164 0 0 104 0 0 168 0 0 150 162 0 0 0 0 36 0 0 36 184 0 0 252 0 0 0 0 186 96 0 0 0 0 252 0 0 2 0 0 230 0 0 66 0 0 188 138 0 0 0 0 26 112 0 0 196 0 0 0 0 190 160 0 0 0 0 102 90 0 0 0 0 4 0 0 146 
0 0 210 0 0 248 108 0 0 0 0 40 0 0 130 0 0 168 0 0 140 0 0 206 54 0 0 168 0 0 20 0 0 0 0 180 0 0 46 0 0 122 142 0 0 0 0 88 0 0 200 0 0 94 72 0 0 0 0 46 36 0 0 228 0 0 0 0 106 0 0 144 178 0 0 46 0 0 0 0 2 172 0 0 0 0 248 0 0 208 62 0 0 152 0 0 156 0 0 230 0 0 166 0 0 0 0 238 0 0 142 144 0 0 0 0 170 0 0 30 0 0 198 68 0 0 76 0 0 0 0 68 40 0 0 138 0 0 224 0 0 0 0 34 0 0 144 0 0 236 
132 0 0 0 0 228 238 0 0 0 0 40 0 0 200 220 0 0 0 0 122 0 0 90 0 0 188 0 0 180 0 0 156 140 0 0 200 0 0 236 0 0 0 0 124 0 0 46 0 0 50 0 0 12 0 0 230 102 0 0 26 0 0 0 0 204 242 0 0 192 0 0 186 0 0 10 0 0 0 0 156 68 0 0 32 0 0 180 0 0 118 0 0 0 0 50 44 0 0 0 0 30 154 0 0 232 0 0 0 0 56 0 0 10 0 0 198 0 0 228 164 0 0 0 0 180 156 0 0 0 0 64 232 0 0 0 0 194 0 0 2 0 0 230 0 0 186 146 146 146 
106 0 0 134 0 0 0 0 84 0 0 248 0 0 76 128 0 0 124 0 0 0 0 32 100 0 0 210 0 0 74 0 0 0 0 98 48 0 0 104 0 0 170 0 0 218 0 0 0 0 86 150 0 0 0 0 230 0 0 142 142 0 0 0 0 44 0 0 240 174 0 0 76 0 0 0 0 120 0 0 66 0 0 2 0 0 32 96 0 0 0 0 92 130 0 0 0 0 186 88 0 0 0 0 148 126 0 0 0 0 58 0 0 4 184 0 0 166 0 0 184 0 0 0 0 98 0 0 42 132 0 0 0 0 188 200 0 0 0 0 244 0 0 222 194 194 194 18 18 18 
0 0 100 0 0 136 104 0 0 0 0 232 98 0 0 176 0 0 0 0 248 0 0 84 206 0 0 128 0 0 186 0 0 90 0 0 148 0 0 172 0 0 172 0 0 0 0 24 72 0 0 0 0 82 52 0 0 0 0 170 0 0 94 0 0 168 0 0 152 0 0 52 0 0 12 0 0 182 0 0 88 0 0 72 0 0 248 120 0 0 188 0 0 222 0 0 0 0 44 190 0 0 138 0 0 226 0 0 0 0 240 248 0 0 0 0 166 0 0 250 0 0 136 0 0 192 0 0 212 0 0 84 0 0 56 18 0 0 0 0 156 120 120 120  0 116 0  96 96 96 
16 0 0 28 0 0 44 0 0 12 0 0 0 0 90 204 0 0 224 0 0 0 0 52 74 0 0 0 0 68 0 0 180 0 0 148 0 0 184 108 0 0 0 0 212 0 0 196 148 0 0 0 0 22 12 0 0 94 0 0 0 0 226 0 0 214 178 0 0 200 0 0 48 0 0 230 0 0 0 0 130 0 0 56 0 0 38 4 0 0 0 0 10 246 0 0 68 0 0 0 0 62 0 0 140 230 0 0 0 0 74 194 0 0 12 0 0 238 0 0 166 0 0 0 0 100 0 0 224 0 0 12 96 0 0 108 0 0  0 164 0  50 50 50  0 52 0   0 8 0  
0 0 126 0 0 230 230 0 0 0 0 206 188 0 0 34 0 0 0 0 68 202 0 0 174 0 0 24 0 0 154 0 0 0 0 134 118 0 0 164 0 0 80 0 0 0 0 202 218 0 0 182 0 0 0 0 84 0 0 60 20 0 0 236 0 0 0 0 82 0 0 244 0 0 120 180 0 0 0 0 240 0 0 174 144 0 0 22 0 0 0 0 156 0 0 228 0 0 226 118 0 0 0 0 140 0 0 18 62 0 0 0 0 122 0 0 216 0 0 18 0 0 26 96 0 0 132 0 0 0 0 188 0 0 188  0 104 0   0 214 0  44 44 44 90 90 90 84 84 84 
90 90 90 142 0 0 136 0 0 100 0 0 120 0 0 128 0 0 0 0 102 170 0 0 0 0 138 0 0 202 216 0 0 0 0 232 0 0 178 0 0 70 0 0 130 0 0 36 0 0 162 162 0 0 0 0 50 194 0 0 0 0 200 90 0 0 0 0 24 0 0 46 0 0 138 32 0 0 0 0 38 140 0 0 0 0 246 0 0 226 142 142 142 0 0 94 0 0 46 170 170 170 0 0 142 6 0 0 110 0 0 0 0 184 46 0 0 0 0 214 246 0 0 0 0 196 0 0 56 0 0 82  0 16 0  8 8 8  0 124 0   0 98 0  136 136 136 206 206 206 
58 58 58 246 246 246 0 0 164 138 0 0 0 0 72 0 0 52 122 0 0 0 0 84 0 0 2 124 0 0 0 0 102 84 0 0 170 0 0 0 0 152 0 0 130 2 0 0 246 0 0 24 0 0 0 0 202 0 0 250 228 0 0 166 0 0 0 0 126 0 0 68 0 0 130 148 0 0 0 0 14 74 0 0 228 228 228 12 12 12  0 40 0   0 2 0  194 194 194 238 238 238 12 12 12 120 120 120 0 0 120 0 0 124 0 0 248 0 0 64 0 0 134 0 0 168 0 0 222 66 66 66  0 136 0  102 102 102 60 60 60  0 24 0  84 84 84  0 2 0  
 0 4 0  34 34 34 94 94 94 0 0 102 0 0 176 102 0 0 68 0 0 0 0 102 0 0 222 0 0 156 58 0 0 0 0 124 0 0 122 0 0 104 0 0 54 228 0 0 0 0 2 114 0 0 0 0 74 0 0 80 254 0 0 0 0 132 136 0 0 0 0 124 0 0 122 0 0 174 0 0 220 76 76 76 112 112 112 232 232 232 88 88 88  0 130 0  156 156 156 142 142 142  0 160 0  222 222 222 76 76 76 16 16 16 0 0 220 180 180 180 0 0 110 0 0 208  0 108 0  138 138 138 118 118 118 236 236 236 222 222 222  0 36 0   0 158 0  48 48 48 
182 182 182 34 34 34 180 180 180  0 216 0  0 0 138 164 0 0 212 0 0 0 0 86 0 0 62 0 0 208 0 0 226 82 0 0 146 0 0 96 0 0 0 0 166 190 0 0 0 0 246 0 0 16 236 236 236 0 0 208 0 0 242 182 0 0 0 0 112 0 0 230 0 0 220 228 0 0 56 56 56 240 240 240  0 156 0  94 94 94 42 42 42 82 82 82 124 124 124 210 210 210  0 212 0   0 82 0  28 28 28 86 86 86  0 92 0  186 186 186  0 44 0  164 164 164  0 6 0  94 94 94 104 104 104  0 122 0   0 218 0  120 120 120 246 246 246 30 30 30 
 0 84 0  98 98 98  0 186 0   0 118 0  200 200 200 0 0 136 108 0 0 0 0 54 0 0 148 0 0 112 0 0 76 200 0 0 110 0 0 0 0 138 0 0 154 106 0 0 0 0 94 42 42 42 72 72 72 74 74 74 132 132 132 0 0 92 0 0 212 0 0 160 0 0 198  0 56 0   0 10 0  76 76 76  0 228 0  190 190 190  0 226 0   0 42 0   0 50 0  56 56 56 186 186 186 64 64 64 228 228 228 130 130 130  0 216 0   0 108 0  52 52 52 108 108 108 30 30 30 14 14 14  0 158 0  178 178 178  0 142 0   0 36 0  180 180 180 16 16 16 
192 192 192 182 182 182  0 140 0  242 242 242  0 18 0  222 222 222 0 0 156 94 0 0 0 0 112 0 0 180 0 0 252 50 0 0 134 0 0 0 0 24 0 0 244 0 0 210  0 98 0   0 2 0   0 130 0   0 68 0  74 74 74 32 32 32 32 32 32 0 0 248 14 14 14 146 146 146  0 202 0   0 122 0  156 156 156 194 194 194  0 16 0  246 246 246 20 20 20  0 20 0  6 6 6 236 236 236 202 202 202 226 226 226  0 160 0   0 68 0  128 128 128 186 186 186 202 202 202  0 42 0  212 212 212 70 70 70 140 140 140 148 148 148 28 28 28  0 206 0  
 0 30 0  78 78 78 98 98 98 4 4 4  0 36 0  224 224 224  0 184 0  0 0 4 0 0 134 0 0 184 0 0 168 0 0 118 186 186 186 0 0 72 252 252 252 158 158 158 112 112 112  0 10 0   0 12 0   0 166 0  164 164 164  0 148 0  242 242 242 92 92 92 244 244 244  0 158 0   0 26 0  142 142 142  0 84 0  224 224 224 4 4 4 150 150 150  0 104 0   0 28 0  8 8 8  0 132 0  178 178 178 92 92 92 4 4 4  0 128 0  220 220 220 140 140 140  0 206 0  34 34 34 238 238 238 58 58 58  0 242 0   0 236 0  84 84 84  0 116 0  
38 38 38 214 214 214  0 34 0  112 112 112 252 252 252  0 110 0   0 2 0  112 112 112 226 226 226 84 84 84 0 0 2 60 60 60 76 76 76 38 38 38 96 96 96 100 100 100  0 192 0   0 30 0   0 14 0  114 114 114  0 48 0  30 30 30 122 122 122  0 252 0   0 104 0  206 206 206  0 50 0   0 140 0   0 196 0   0 206 0  64 64 64 82 82 82  0 188 0  40 40 40  0 16 0   0 76 0  138 138 138 102 102 102  0 120 0   0 122 0  68 68 68  0 72 0  188 188 188  0 20 0   0 10 0  90 90 90 50 50 50  0 148 0   0 116 0  210 210 210 
146 146 146 220 220 220  0 48 0   0 112 0  38 38 38  0 8 0   0 32 0  178 178 178 216 216 216  0 156 0   0 122 0  116 116 116 224 224 224  0 230 0  28 28 28 86 86 86  0 186 0  68 68 68  0 150 0   0 60 0   0 150 0   0 198 0  34 34 34 142 142 142  0 48 0  100 100 100  0 22 0   0 196 0  106 106 106  0 90 0  192 192 192  0 240 0  252 252 252  0 126 0  128 128 128  0 188 0  156 156 156  0 164 0  22 22 22  0 224 0  68 68 68 90 90 90  0 54 0  236 236 236  0 142 0  184 184 184  0 32 0  162 162 162  0 92 0   0 216 0  
44 44 44  0 24 0  130 130 130  0 78 0   0 36 0  172 172 172  0 220 0  210 210 210  0 36 0   0 38 0  196 196 196  0 228 0   0 84 0   0 60 0  172 172 172 114 114 114  0 102 0   0 112 0  232 232 232  0 84 0  114 114 114 26 26 26 32 32 32  0 6 0  106 106 106 64 64 64 90 90 90 212 212 212 64 64 64  0 38 0  200 200 200 150 150 150  0 116 0  144 144 144 136 136 136  0 54 0   0 8 0  202 202 202 36 36 36 144 144 144  0 240 0   0 122 0   0 178 0   0 244 0  94 94 94  0 222 0   0 78 0  10 10 10 138 138 138 186 186 186 
200 200 200  0 224 0  164 164 164  0 134 0  102 102 102  0 8 0   0 60 0  206 206 206  0 120 0   0 236 0   0 26 0  200 200 200 170 170 170 146 146 146  0 214 0   0 50 0   0 52 0  6 6 6 178 178 178  0 114 0  176 176 176  0 74 0   0 170 0   0 202 0   0 158 0   0 188 0  96 96 96 170 170 170  0 84 0  168 168 168 178 178 178  0 166 0   0 46 0  80 80 80  0 132 0  170 170 170  0 232 0  228 228 228 172 172 172  0 144 0   0 220 0   0 96 0  200 200 200  0 50 0   0 70 0  110 110 110 122 122 122  0 250 0   0 82 0  132 132 132 
 0 46 0   0 54 0  12 12 12  0 228 0  106 106 106 208 208 208  0 228 0  86 86 86  0 200 0  30 30 30 56 56 56 70 70 70 42 42 42  0 214 0   0 92 0  42 42 42 188 188 188 86 86 86 102 102 102 158 158 158 126 126 126  0 142 0   0 232 0   0 6 0   0 182 0   0 202 0   0 118 0  50 50 50  0 174 0  172 172 172  0 228 0  114 114 114 234 234 234 46 46 46  0 234 0  26 26 26  0 218 0   0 36 0   0 136 0   0 82 0  30 30 30 170 170 170  0 148 0   0 228 0   0 230 0  212 212 212  0 250 0   0 56 0  92 92 92 146 146 146 
68 68 68 130 130 130  0 180 0   0 54 0  84 84 84  0 144 0  34 34 34 50 50 50  0 230 0  96 96 96 138 138 138 162 162 162  0 48 0   0 250 0   0 246 0   0 214 0   0 146 0   0 164 0  42 42 42 230 230 230 242 242 242 230 230 230 16 16 16  0 190 0   0 216 0  104 104 104  0 246 0   0 234 0   0 102 0   0 70 0  60 60 60  0 56 0  172 172 172 204 204 204 214 214 214  0 200 0   0 236 0  6 6 6  0 110 0  220 220 220 132 132 132 24 24 24  0 246 0  6 6 6 40 40 40  0 14 0  148 148 148  0 206 0  248 248 248  0 138 0  
 0 242 0   0 186 0  228 228 228  0 170 0   0 188 0   0 16 0  144 144 144  0 190 0  222 222 222 118 118 118  0 82 0  76 76 76  0 46 0  174 174 174 170 170 170 76 76 76 122 122 122 206 206 206  0 154 0  174 174 174 2 2 2 100 100 100 234 234 234  0 152 0  98 98 98 178 178 178 50 50 50  0 42 0  240 240 240 48 48 48 240 240 240 120 120 120  0 94 0  232 232 232  0 116 0   0 122 0  66 66 66  0 14 0   0 42 0   0 82 0   0 212 0   0 140 0   0 182 0  212 212 212  0 192 0   0 6 0   0 46 0   0 126 0  34 34 34  0 198 0  
44 44 44  0 60 0   0 160 0   0 104 0   0 222 0  28 28 28  0 26 0   0 176 0   0 236 0   0 144 0  198 198 198 20 20 20 42 42 42 38 38 38 120 120 120  0 80 0   0 220 0  30 30 30  0 2 0  228 228 228 246 246 246 176 176 176  0 34 0  180 180 180  0 248 0  222 222 222 124 124 124  0 236 0  98 98 98 150 150 150  0 32 0   0 54 0   0 218 0  26 26 26  0 2 0  134 134 134  0 208 0   0 250 0  116 116 116  0 228 0   0 70 0   0 128 0  158 158 158 160 160 160  0 40 0  236 236 236 182 182 182  0 40 0  26 26 26 66 66 66 
238 238 238  0 228 0   0 242 0   0 198 0  50 50 50  0 146 0   0 238 0  126 126 126 32 32 32 230 230 230  0 2 0  98 98 98  0 52 0  186 186 186 198 198 198  0 26 0  252 252 252  0 128 0   0 200 0  22 22 22  0 122 0   0 164 0   0 72 0  216 216 216 162 162 162 126 126 126  0 12 0  214 214 214  0 116 0  164 164 164  0 148 0  188 188 188 226 226 226  0 10 0  102 102 102 166 166 166 88 88 88 104 104 104  0 250 0   0 154 0   0 50 0  32 32 32  0 160 0   0 162 0  140 140 140 78 78 78 236 236 236  0 116 0   0 206 0  148 148 148 
 0 176 0   0 64 0  28 28 28  0 160 0   0 10 0   0 56 0   0 26 0  44 44 44  0 50 0  166 166 166  0 214 0   0 102 0   0 158 0  144 144 144 74 74 74  0 52 0   0 126 0   0 186 0   0 132 0  42 42 42  0 74 0   0 8 0   0 118 0  34 34 34  0 246 0   0 228 0  42 42 42 4 4 4  0 242 0   0 50 0   0 154 0  46 46 46  0 120 0   0 140 0   0 142 0  154 154 154  0 252 0  182 182 182 188 188 188 128 128 128 54 54 54 136 136 136  0 190 0   0 66 0  218 218 218 74 74 74 200 200 200  0 112 0  222 222 222 226 226 226 
214 214 214 246 246 246 100 100 100 198 198 198 200 200 200  0 60 0   0 220 0  26 26 26 96 96 96  0 138 0   0 142 0   0 108 0  178 178 178  0 144 0  210 210 210  0 36 0  126 126 126  0 228 0  34 34 34 16 16 16 120 120 120  0 250 0   0 18 0  228 228 228  0 162 0   0 194 0  130 130 130 108 108 108  0 238 0  208 208 208 228 228 228  0 58 0   0 250 0   0 222 0  30 30 30  0 192 0  26 26 26 122 122 122 112 112 112  0 2 0   0 124 0  34 34 34 56 56 56 82 82 82  0 148 0   0 158 0  62 62 62  0 76 0   0 214 0   0 172 0  
222 222 222  0 142 0  246 246 246 92 92 92  0 234 0  72 72 72 14 14 14  0 8 0  210 210 210  0 240 0  226 226 226  0 124 0  36 36 36 28 28 28 0 0 0 30 30 30  0 54 0  154 154 154  0 94 0  74 74 74 152 152 152  0 126 0  140 140 140  0 246 0  154 154 154 18 18 18 164 164 164 140 140 140 178 178 178 120 120 120  0 104 0   0 108 0  2 2 2 4 4 4  0 168 0  236 236 236  0 32 0   0 234 0  20 20 20  0 88 0  216 216 216  0 8 0  196 196 196  0 122 0   0 98 0   0 216 0  192 192 192 98 98 98 88 88 88  0 220 0  
 0 218 0  40 40 40 182 182 182 96 96 96 146 146 146 54 54 54 184 184 184  0 110 0   0 56 0   0 170 0  68 68 68  0 20 0  194 194 194  0 216 0   0 110 0  50 50 50  0 208 0   0 104 0   0 226 0   0 20 0  110 110 110  0 228 0   0 226 0   0 184 0   0 142 0   0 30 0   0 22 0  200 200 200 152 152 152 48 48 48  0 226 0   0 98 0   0 170 0  136 136 136 34 34 34 116 116 116  0 28 0  126 126 126 110 110 110  0 70 0  216 216 216 26 26 26  0 222 0   0 106 0  114 114 114 0 0 0  0 36 0  22 22 22 196 196 196  0 34 0  
 0 6 0   0 78 0  200 200 200 230 230 230 8 8 8  0 228 0  144 144 144 132 132 132  0 2 0   0 112 0   0 154 0   0 124 0   0 4 0   0 80 0   0 26 0   0 166 0   0 2 0   0 210 0  88 88 88 244 244 244  0 104 0   0 152 0   0 140 0   0 238 0   0 132 0   0 80 0  232 232 232  0 26 0   0 136 0   0 108 0  80 80 80 220 220 220  0 140 0   0 136 0   0 60 0   0 186 0  114 114 114 36 36 36  0 208 0   0 100 0   0 100 0   0 30 0   0 164 0   0 220 0  178 178 178  0 210 0   0 106 0  114 114 114  0 238 0   0 80 0  
 0 202 0   0 244 0  76 76 76  0 166 0  44 44 44  0 156 0   0 248 0  78 78 78 8 8 8  0 106 0  10 10 10  0 14 0  4 4 4  0 128 0   0 50 0   0 110 0   0 78 0   0 156 0  182 182 182 38 38 38 58 58 58  0 150 0  174 174 174  0 158 0  66 66 66 68 68 68  0 4 0  166 166 166  0 184 0  52 52 52  0 2 0   0 150 0  120 120 120 12 12 12  0 108 0   0 82 0  106 106 106 78 78 78 178 178 178 140 140 140 138 138 138 88 88 88 172 172 172 44 44 44  0 68 0  100 100 100 116 116 116 42 42 42 120 120 120  0 186 0  
 0 186 0  84 84 84 80 80 80  0 190 0  150 150 150  0 70 0  156 156 156 38 38 38  0 94 0   0 102 0   0 22 0  220 220 220  0 166 0  66 66 66  0 250 0   0 148 0   0 54 0  112 112 112 66 66 66 124 124 124  0 136 0  82 82 82  0 252 0   0 100 0   0 78 0  66 66 66  0 234 0   0 122 0   0 148 0   0 176 0   0 6 0   0 186 0  90 90 90 250 250 250  0 116 0  208 208 208  0 6 0  148 148 148  0 228 0   0 166 0  78 78 78  0 192 0  132 132 132  0 156 0   0 106 0  0 0 0  0 94 0   0 18 0   0 96 0  20 20 20 
 0 46 0   0 50 0  42 42 42  0 30 0  30 30 30 74 74 74  0 202 0  240 240 240  0 52 0  140 140 140 14 14 14 206 206 206  0 12 0  84 84 84 136 136 136 42 42 42 46 46 46 50 50 50  0 156 0   0 114 0   0 214 0  102 102 102 198 198 198 76 76 76 92 92 92 18 18 18  0 138 0   0 200 0  54 54 54 212 212 212  0 228 0  128 128 128  0 18 0   0 170 0   0 224 0  6 6 6  0 36 0  50 50 50 102 102 102 92 92 92 46 46 46 120 120 120  0 70 0   0 240 0   0 156 0   0 106 0   0 42 0   0 92 0  130 130 130 40 40 40 
90 90 90 146 146 146 226 226 226  0 204 0  216 216 216  0 82 0   0 234 0  82 82 82  0 190 0  126 126 126  0 146 0   0 2 0   0 126 0   0 158 0  172 172 172  0 206 0  206 206 206 214 214 214  0 212 0   0 134 0  140 140 140  0 168 0   0 194 0   0 110 0  20 20 20 238 238 238 8 8 8 212 212 212 0 0 0 38 38 38  0 210 0  198 198 198 114 114 114 26 26 26  0 56 0  32 32 32  0 72 0  12 12 12  0 240 0  202 202 202  0 80 0   0 64 0   0 250 0   0 212 0   0 86 0  190 190 190 14 14 14 196 196 196  0 66 0   0 248 0  
 0 182 0   0 74 0  40 40 40  0 226 0  86 86 86  0 96 0   0 70 0   0 46 0   0 70 0  248 248 248  0 250 0  104 104 104 68 68 68  0 164 0   0 76 0  170 170 170  0 190 0  174 174 174  0 140 0  44 44 44  0 114 0   0 148 0   0 232 0   0 48 0  38 38 38  0 82 0  36 36 36  0 242 0   0 228 0  138 138 138  0 4 0  198 198 198  0 186 0   0 100 0   0 22 0   0 86 0   0 96 0   0 56 0  188 188 188  0 50 0   0 182 0   0 42 0  106 106 106  0 98 0   0 222 0   0 230 0   0 26 0   0 212 0  168 168 168  0 6 0  
78 78 78  0 134 0   0 188 0   0 66 0  152 152 152  0 20 0   0 126 0   0 164 0  198 198 198 120 120 120  0 172 0   0 142 0  116 116 116  0 108 0  158 158 158  0 128 0   0 74 0  114 114 114 36 36 36 60 60 60  0 242 0  90 90 90 202 202 202 58 58 58  0 208 0  170 170 170  0 184 0  242 242 242  0 98 0  74 74 74  0 28 0   0 48 0   0 170 0  84 84 84 138 138 138  0 114 0  12 12 12 100 100 100  0 96 0   0 10 0  10 10 10 104 104 104 44 44 44  0 66 0   0 130 0  132 132 132  0 210 0   0 194 0   0 112 0   0 252 0  
