P3 10 10 255 
0 0 48 214 0 0 114 0 0 102 0 0 0 0 134 0 0 194 0 0 28 206 0 0 0 0 230 0 0 240 
60 0 0 0 0 140 0 0 208 0 0 192 0 0 188 0 0 120 144 0 0 186 0 0 0 0 18 0 0 118 
96 0 0 144 0 0 0 0 56 0 0 16 0 0 186 0 0 176 78 0 0 0 0 46 88 88 88 62 62 62 
0 0 82 238 0 0 0 0 20 146 0 0 0 0 210 0 0 134 0 0 4 80 80 80 196 196 196 58 58 58 
220 0 0 0 0 24 20 0 0 0 0 212 0 0 82 156 156 156  0 118 0  12 12 12  0 202 0   0 128 0  
0 0 206 0 0 250 0 0 222 60 60 60 6 6 6 6 6 6  0 32 0   0 174 0  118 118 118  0 34 0  
154 154 154 14 14 14 150 150 150  0 162 0   0 80 0  120 120 120  0 248 0   0 176 0  120 120 120  0 124 0  
 0 128 0   0 104 0  80 80 80  0 252 0  12 12 12  0 108 0  192 192 192  0 10 0  88 88 88 178 178 178 
 0 252 0  104 104 104 18 18 18 198 198 198  0 26 0   0 100 0  54 54 54  0 136 0  246 246 246 8 8 8 
 0 98 0  30 30 30  0 88 0  16 16 16  0 4 0   0 174 0  202 202 202 196 196 196  0 50 0  38 38 38 
